# Blender 3.6.1
# www.blender.org
mtllib desktop.mtl
o Cube
v 0.300000 0.015000 -0.500000
v 0.300000 -0.015000 -0.500000
v 0.300000 0.015000 0.500000
v 0.300000 -0.015000 0.500000
v -0.300000 0.015000 -0.500000
v -0.300000 -0.015000 -0.500000
v -0.300000 0.015000 0.500000
v -0.300000 -0.015000 0.500000
v -0.282242 -0.015000 -0.484760
v -0.282242 -0.015000 0.484760
v 0.282242 -0.015000 -0.484760
v 0.282242 0.015000 0.484760
v -0.282242 0.015000 0.484760
v 0.282242 0.015000 -0.484760
v 0.282242 -0.015000 0.484760
v -0.282242 0.015000 -0.484760
v -0.282242 -0.015000 -0.434468
v -0.282242 -0.015000 0.434468
v 0.282242 -0.015000 -0.434468
v 0.282242 -0.015000 0.434468
v -0.282242 -0.015000 -0.383433
v -0.282242 -0.015000 0.383433
v 0.282242 -0.015000 -0.383433
v 0.282242 -0.015000 0.383433
v 0.245388 -0.015000 -0.434468
v -0.245388 -0.015000 -0.434468
v -0.245388 -0.015000 0.434468
v 0.245388 -0.015000 0.434468
v 0.245388 -0.015000 -0.383433
v -0.245388 -0.015000 -0.383433
v -0.245388 -0.015000 0.383433
v 0.245388 -0.015000 0.383433
v 0.200946 -0.015000 -0.434468
v -0.200946 -0.015000 -0.434468
v -0.200946 -0.015000 0.434468
v 0.200946 -0.015000 0.434468
v 0.200946 -0.015000 -0.383433
v -0.200946 -0.015000 -0.383433
v -0.200946 -0.015000 0.383433
v 0.200946 -0.015000 0.383433
v -0.245388 -0.015000 0.434468
v -0.245388 -0.015000 0.383433
v 0.245388 -0.015000 0.383433
v 0.245388 -0.015000 0.434468
v -0.245388 -0.015000 -0.434468
v -0.245388 -0.015000 -0.383433
v 0.245388 -0.015000 -0.383433
v 0.245388 -0.015000 -0.434468
v -0.200946 -0.015000 0.434468
v -0.200946 -0.015000 0.383433
v 0.200946 -0.015000 0.383433
v 0.200946 -0.015000 0.434468
v -0.200946 -0.015000 -0.434468
v -0.200946 -0.015000 -0.383433
v 0.200946 -0.015000 -0.383433
v 0.200946 -0.015000 -0.434468
v -0.245388 -0.654672 0.434468
v -0.245388 -0.654672 0.383433
v 0.245388 -0.654672 0.383433
v 0.245388 -0.654672 0.434468
v -0.245388 -0.654672 -0.434468
v -0.245388 -0.654672 -0.383433
v 0.245388 -0.654672 -0.383433
v 0.245388 -0.654672 -0.434468
v -0.200946 -0.654672 0.434468
v -0.200946 -0.654672 0.383433
v 0.200946 -0.654672 0.383433
v 0.200946 -0.654672 0.434468
v -0.200946 -0.654672 -0.434468
v -0.200946 -0.654672 -0.383433
v 0.200946 -0.654672 -0.383433
v 0.200946 -0.654672 -0.434468
vn -0.0000 1.0000 -0.0000
vn -0.0000 -0.0000 1.0000
vn -1.0000 -0.0000 -0.0000
vn -0.0000 -1.0000 -0.0000
vn 1.0000 -0.0000 -0.0000
vn -0.0000 -0.0000 -1.0000
vn -0.0129 -0.9999 -0.0000
vn 0.0129 -0.9999 -0.0000
vn 0.0144 -0.9999 -0.0000
vn -0.0144 -0.9999 -0.0000
vt 0.625000 0.750000
vt 0.625000 1.000000
vt 0.375000 1.000000
vt 0.375000 0.750000
vt 0.625000 0.000000
vt 0.375000 0.250000
vt 0.375000 0.000000
vt 0.625000 0.500000
vt 0.375000 0.500000
vt 0.625000 0.250000
vt 0.875000 0.500000
vt 0.125000 0.750000
vt 0.125000 0.500000
vt 0.875000 0.750000
s 0
usemtl Material
f 3/1/1 13/2/1 7/2/1
f 3/1/2 8/3/2 4/4/2
f 7/5/3 6/6/3 8/7/3
f 8/3/4 15/4/4 4/4/4
f 1/8/5 4/4/5 2/9/5
f 5/10/6 2/9/6 6/6/6
f 16/11/1 12/1/1 14/8/1
f 15/4/7 19/9/7 11/9/7
f 4/4/4 11/9/4 2/9/4
f 6/6/4 10/7/4 8/7/4
f 7/5/1 16/10/1 5/10/1
f 1/8/1 12/1/1 3/1/1
f 2/9/4 9/6/4 6/6/4
f 5/10/1 14/8/1 1/8/1
f 20/4/1 27/3/1 28/4/1
f 11/9/4 17/6/4 9/6/4
f 10/3/4 20/4/4 15/4/4
f 9/6/8 18/7/8 10/7/8
f 23/9/4 22/12/4 21/13/4
f 17/6/9 22/7/9 18/7/9
f 20/4/10 23/9/10 19/9/10
f 24/4/4 28/4/4 32/4/4
f 29/9/1 55/9/1 47/9/1
f 39/3/1 49/3/1 50/3/1
f 23/9/4 30/13/4 29/9/4
f 21/6/4 26/6/4 30/6/4
f 22/7/4 27/7/4 18/7/4
f 17/6/1 25/9/1 26/6/1
f 22/12/4 32/4/4 31/12/4
f 23/9/4 25/9/4 19/9/4
f 36/4/4 39/3/4 40/4/4
f 34/6/4 37/9/4 38/6/4
f 29/9/1 38/13/1 37/9/1
f 26/6/4 33/9/4 34/6/4
f 32/4/1 44/4/1 43/4/1
f 35/3/1 41/3/1 49/3/1
f 31/12/1 40/4/1 39/12/1
f 28/4/4 35/3/4 36/4/4
f 49/3/5 66/3/5 50/3/5
f 41/3/2 65/3/2 49/3/2
f 47/9/5 64/9/5 48/9/5
f 50/12/6 58/12/6 42/12/6
f 30/6/1 45/6/1 46/6/1
f 36/4/1 51/4/1 52/4/1
f 33/9/1 48/9/1 56/9/1
f 25/9/1 47/9/1 48/9/1
f 34/6/1 54/6/1 53/6/1
f 28/4/1 52/4/1 44/4/1
f 37/9/1 56/9/1 55/9/1
f 40/4/1 43/4/1 51/4/1
f 26/6/1 53/6/1 45/6/1
f 38/13/1 46/13/1 54/13/1
f 31/12/1 50/12/1 42/12/1
f 27/7/1 42/7/1 41/7/1
f 58/7/4 65/7/4 57/7/4
f 62/6/4 69/6/4 70/6/4
f 63/9/4 72/9/4 64/9/4
f 59/4/4 68/4/4 67/4/4
f 55/9/2 63/9/2 47/9/2
f 51/4/3 68/4/3 52/4/3
f 48/9/6 72/9/6 56/9/6
f 54/6/5 69/6/5 53/6/5
f 52/4/2 60/4/2 44/4/2
f 56/9/3 71/9/3 55/9/3
f 42/7/3 57/7/3 41/7/3
f 43/4/6 67/4/6 51/4/6
f 53/6/6 61/6/6 45/6/6
f 44/4/5 59/4/5 43/4/5
f 46/13/2 70/13/2 54/13/2
f 45/6/3 62/6/3 46/6/3
f 3/1/1 12/1/1 13/2/1
f 3/1/2 7/2/2 8/3/2
f 7/5/3 5/10/3 6/6/3
f 8/3/4 10/3/4 15/4/4
f 1/8/5 3/1/5 4/4/5
f 5/10/6 1/8/6 2/9/6
f 16/11/1 13/14/1 12/1/1
f 15/4/4 20/4/4 19/9/4
f 4/4/4 15/4/4 11/9/4
f 6/6/4 9/6/4 10/7/4
f 7/5/1 13/5/1 16/10/1
f 1/8/1 14/8/1 12/1/1
f 2/9/4 11/9/4 9/6/4
f 5/10/1 16/10/1 14/8/1
f 20/4/4 18/3/4 27/3/4
f 11/9/4 19/9/4 17/6/4
f 10/3/4 18/3/4 20/4/4
f 9/6/4 17/6/4 18/7/4
f 23/9/4 24/4/4 22/12/4
f 17/6/4 21/6/4 22/7/4
f 20/4/4 24/4/4 23/9/4
f 24/4/4 20/4/4 28/4/4
f 29/9/1 37/9/1 55/9/1
f 39/3/1 35/3/1 49/3/1
f 23/9/1 21/13/1 30/13/1
f 21/6/4 17/6/4 26/6/4
f 22/7/4 31/7/4 27/7/4
f 17/6/4 19/9/4 25/9/4
f 22/12/1 24/4/1 32/4/1
f 23/9/4 29/9/4 25/9/4
f 36/4/4 35/3/4 39/3/4
f 34/6/4 33/9/4 37/9/4
f 29/9/1 30/13/1 38/13/1
f 26/6/1 25/9/1 33/9/1
f 32/4/1 28/4/1 44/4/1
f 35/3/1 27/3/1 41/3/1
f 31/12/1 32/4/1 40/4/1
f 28/4/1 27/3/1 35/3/1
f 49/3/5 65/3/5 66/3/5
f 41/3/2 57/3/2 65/3/2
f 47/9/5 63/9/5 64/9/5
f 50/12/6 66/12/6 58/12/6
f 30/6/1 26/6/1 45/6/1
f 36/4/1 40/4/1 51/4/1
f 33/9/1 25/9/1 48/9/1
f 25/9/1 29/9/1 47/9/1
f 34/6/1 38/6/1 54/6/1
f 28/4/1 36/4/1 52/4/1
f 37/9/1 33/9/1 56/9/1
f 40/4/1 32/4/1 43/4/1
f 26/6/1 34/6/1 53/6/1
f 38/13/1 30/13/1 46/13/1
f 31/12/1 39/12/1 50/12/1
f 27/7/1 31/7/1 42/7/1
f 58/7/4 66/7/4 65/7/4
f 62/6/4 61/6/4 69/6/4
f 63/9/4 71/9/4 72/9/4
f 59/4/4 60/4/4 68/4/4
f 55/9/2 71/9/2 63/9/2
f 51/4/3 67/4/3 68/4/3
f 48/9/6 64/9/6 72/9/6
f 54/6/5 70/6/5 69/6/5
f 52/4/2 68/4/2 60/4/2
f 56/9/3 72/9/3 71/9/3
f 42/7/3 58/7/3 57/7/3
f 43/4/6 59/4/6 67/4/6
f 53/6/6 69/6/6 61/6/6
f 44/4/5 60/4/5 59/4/5
f 46/13/2 62/13/2 70/13/2
f 45/6/3 61/6/3 62/6/3
