# Blender 3.6.1
# www.blender.org
mtllib libraryBG.mtl
o Desk
v 1.054657 0.903253 -1.107802
v 1.054657 0.016428 -1.107802
v 1.054657 0.903253 -0.302414
v 1.054657 0.016428 -0.302414
v -1.046259 0.903253 -1.107802
v -1.046259 0.016428 -1.107802
v -1.046259 0.903253 -0.302414
v -1.046259 0.016428 -0.302414
vn -0.0000 1.0000 -0.0000
vn -0.0000 -0.0000 1.0000
vn -1.0000 -0.0000 -0.0000
vn -0.0000 -1.0000 -0.0000
vn 1.0000 -0.0000 -0.0000
vn -0.0000 -0.0000 -1.0000
vt 0.875000 0.500000
vt 0.625000 0.750000
vt 0.625000 0.500000
vt 0.375000 1.000000
vt 0.375000 0.750000
vt 0.625000 0.000000
vt 0.375000 0.250000
vt 0.375000 0.000000
vt 0.375000 0.500000
vt 0.125000 0.750000
vt 0.125000 0.500000
vt 0.625000 0.250000
vt 0.875000 0.750000
vt 0.625000 1.000000
s 0
usemtl Wood_dark
f 5/1/1 3/2/1 1/3/1
f 3/2/2 8/4/2 4/5/2
f 7/6/3 6/7/3 8/8/3
f 2/9/4 8/10/4 6/11/4
f 1/3/5 4/5/5 2/9/5
f 5/12/6 2/9/6 6/7/6
f 5/1/1 7/13/1 3/2/1
f 3/2/2 7/14/2 8/4/2
f 7/6/3 5/12/3 6/7/3
f 2/9/4 4/5/4 8/10/4
f 1/3/5 3/2/5 4/5/5
f 5/12/6 1/3/6 2/9/6
o ShelfRight
v -0.055561 0.003130 -2.033347
v -0.055561 2.243559 -2.033347
v -0.055561 0.003130 -2.409638
v -0.055561 2.243559 -2.409638
v 1.564437 0.003130 -2.033347
v 1.564437 2.243559 -2.033347
v 1.564437 0.003130 -2.409638
v 1.564437 2.243559 -2.409638
v -0.055561 0.746294 -2.033347
v -0.055561 1.500395 -2.033347
v 1.564437 1.500395 -2.033347
v 1.564437 0.746294 -2.033347
v 0.013425 0.799433 -2.033347
v 0.013425 1.447257 -2.033347
v 1.495451 1.447257 -2.033347
v 1.495451 0.799433 -2.033347
v 0.013425 0.065014 -2.033347
v 1.495451 0.065014 -2.033347
v 0.013425 0.746294 -2.033347
v 1.495451 0.746294 -2.033347
v 1.495451 2.176577 -2.033347
v 0.013425 2.176577 -2.033347
v 1.495451 1.500395 -2.033347
v 0.013425 1.500395 -2.033347
v 0.013425 0.799433 -2.377918
v 0.013425 1.447257 -2.377918
v 1.495451 1.447257 -2.377918
v 1.495451 0.799433 -2.377918
v 0.013425 0.065014 -2.377918
v 1.495451 0.065014 -2.377918
v 0.013425 0.746294 -2.377918
v 1.495451 0.746294 -2.377918
v 1.495451 2.176577 -2.377918
v 0.013425 2.176577 -2.377918
v 1.495451 1.500395 -2.377918
v 0.013425 1.500395 -2.377918
vn -1.0000 -0.0000 -0.0000
vn -0.0000 -0.0000 -1.0000
vn 1.0000 -0.0000 -0.0000
vn -0.0000 -0.0000 1.0000
vn -0.0000 -1.0000 -0.0000
vn -0.0000 1.0000 -0.0000
vt 0.625000 0.000000
vt 0.375000 0.250000
vt 0.375000 0.000000
vt 0.625000 0.250000
vt 0.375000 0.500000
vt 0.625000 0.500000
vt 0.375000 0.750000
vt 0.625000 0.750000
vt 0.125000 0.750000
vt 0.125000 0.500000
vt 0.875000 0.500000
vt 0.875000 0.750000
vt 0.375000 1.000000
vt 0.625000 1.000000
s 0
usemtl Wood_clear
f 10/15/7 11/16/7 9/17/7
f 12/18/8 15/19/8 11/16/8
f 16/20/9 13/21/9 15/19/9
f 19/22/10 29/22/10 31/22/10
f 15/19/11 9/23/11 11/24/11
f 12/25/12 14/22/12 16/20/12
f 18/26/10 23/22/10 19/22/10
f 13/21/12 19/22/12 20/21/12
f 10/15/12 17/17/12 18/15/12
f 20/21/10 26/21/10 13/21/10
f 23/22/7 36/21/7 24/21/7
f 19/22/10 24/21/10 20/21/10
f 20/21/10 21/23/10 17/23/10
f 17/17/10 22/15/10 18/15/10
f 32/15/9 42/15/9 30/15/9
f 20/21/12 27/23/12 28/21/12
f 13/21/10 25/23/10 9/23/10
f 17/17/10 25/17/10 27/17/10
f 25/17/9 39/17/9 27/17/9
f 18/26/12 31/22/12 32/26/12
f 10/26/10 29/22/10 14/22/10
f 18/15/10 30/15/10 10/15/10
f 35/22/10 33/27/10 36/21/10
f 38/21/10 39/23/10 37/23/10
f 42/26/10 43/22/10 41/22/10
f 26/21/12 37/23/12 25/23/12
f 29/22/7 43/22/7 31/22/7
f 24/21/12 33/23/12 21/23/12
f 27/23/11 40/21/11 28/21/11
f 30/26/11 41/22/11 29/22/11
f 22/26/11 35/22/11 23/22/11
f 28/21/7 38/21/7 26/21/7
f 31/22/12 44/26/12 32/26/12
f 21/17/9 34/15/9 22/15/9
f 10/15/7 12/18/7 11/16/7
f 12/18/8 16/20/8 15/19/8
f 16/20/9 14/22/9 13/21/9
f 19/22/10 14/22/10 29/22/10
f 15/19/11 13/21/11 9/23/11
f 12/25/12 10/26/12 14/22/12
f 18/26/10 22/26/10 23/22/10
f 13/21/12 14/22/12 19/22/12
f 10/15/12 9/17/12 17/17/12
f 20/21/10 28/21/10 26/21/10
f 23/22/7 35/22/7 36/21/7
f 19/22/10 23/22/10 24/21/10
f 20/21/10 24/21/10 21/23/10
f 17/17/10 21/17/10 22/15/10
f 32/15/9 44/15/9 42/15/9
f 20/21/12 17/23/12 27/23/12
f 13/21/10 26/21/10 25/23/10
f 17/17/10 9/17/10 25/17/10
f 25/17/9 37/17/9 39/17/9
f 18/26/12 19/22/12 31/22/12
f 10/26/10 30/26/10 29/22/10
f 18/15/10 32/15/10 30/15/10
f 35/22/10 34/28/10 33/27/10
f 38/21/10 40/21/10 39/23/10
f 42/26/10 44/26/10 43/22/10
f 26/21/12 38/21/12 37/23/12
f 29/22/7 41/22/7 43/22/7
f 24/21/12 36/21/12 33/23/12
f 27/23/11 39/23/11 40/21/11
f 30/26/11 42/26/11 41/22/11
f 22/26/11 34/26/11 35/22/11
f 28/21/7 40/21/7 38/21/7
f 31/22/12 43/22/12 44/26/12
f 21/17/9 33/17/9 34/15/9
o Building
v -2.340962 0.000924 0.096743
v -2.340962 2.673919 0.096743
v -2.340962 0.000924 -2.421256
v -2.340962 2.673919 -2.421256
v 2.056056 0.000924 0.096743
v 2.056056 2.673919 0.096743
v 2.056056 0.000924 -2.421256
v 2.056056 2.673919 -2.421256
v -2.340962 0.000924 -0.554176
v -2.340962 2.673919 -0.554176
v 2.056056 0.000924 -0.554176
v 2.056056 2.673919 -0.554176
v -2.340962 2.673919 -1.874221
v 2.056056 0.000924 -1.874221
v -2.340962 0.000924 -1.874221
v 2.056056 2.673919 -1.874221
v -2.340962 1.019134 0.096743
v -2.340962 1.019134 -2.421256
v 2.056056 1.019134 -2.421256
v 2.056056 1.019134 0.096743
v 2.056056 1.019134 -0.554176
v -2.340962 1.019134 -0.554176
v 2.056056 1.019134 -1.874221
v -2.340962 1.019134 -1.874221
v -2.340962 2.287791 0.096743
v -2.340962 2.287791 -2.421256
v 2.056056 2.287791 -2.421256
v 2.056056 2.287791 0.096743
v 2.056056 2.287791 -0.554176
v -2.340962 2.287791 -0.554176
v 2.056056 2.287791 -1.874221
v -2.340962 2.287791 -1.874221
vn -1.0000 -0.0000 -0.0000
vn -0.0000 -0.0000 -1.0000
vn 1.0000 -0.0000 -0.0000
vt 0.625000 0.195688
vt 0.588886 0.250000
vt 0.588886 0.195688
vt 0.625000 0.250000
vt 0.588886 0.500000
vt 0.625000 0.685373
vt 0.588886 0.750000
vt 0.588886 0.685373
vt 0.625000 0.554312
vt 0.588886 0.554312
vt 0.625000 0.000000
vt 0.588886 0.064627
vt 0.588886 0.000000
vt 0.625000 0.500000
vt 0.625000 0.064627
vt 0.470231 0.064627
vt 0.375000 0.195688
vt 0.375000 0.064627
vt 0.470231 0.500000
vt 0.375000 0.554312
vt 0.375000 0.500000
vt 0.470231 0.000000
vt 0.375000 0.000000
vt 0.470231 0.554312
vt 0.375000 0.685373
vt 0.470231 0.685373
vt 0.375000 0.750000
vt 0.470231 0.250000
vt 0.375000 0.250000
vt 0.470231 0.195688
vt 0.470231 0.750000
vt 0.625000 0.750000
s 0
usemtl Brick
f 57/29/13 70/30/13 76/31/13
f 48/32/14 71/33/14 70/30/14
f 56/34/15 72/35/15 73/36/15
f 60/37/15 73/36/15 75/38/15
f 46/39/13 74/40/13 69/41/13
f 52/42/15 75/38/15 71/33/15
f 54/43/13 76/31/13 74/40/13
f 66/44/13 59/45/13 53/46/13
f 63/47/15 58/48/15 51/49/15
f 61/50/13 53/46/13 45/51/13
f 67/52/15 55/53/15 58/48/15
f 65/54/15 49/55/15 55/53/15
f 62/56/14 51/49/14 47/57/14
f 68/58/13 47/57/13 59/45/13
f 71/33/15 67/52/15 63/47/15
f 69/41/13 66/44/13 61/50/13
f 75/38/15 65/54/15 67/52/15
f 73/36/15 64/59/15 65/54/15
f 70/30/14 63/47/14 62/56/14
f 76/31/13 62/56/13 68/58/13
f 57/29/13 48/32/13 70/30/13
f 48/32/14 52/42/14 71/33/14
f 56/34/15 50/60/15 72/35/15
f 60/37/15 56/34/15 73/36/15
f 46/39/13 54/43/13 74/40/13
f 52/42/15 60/37/15 75/38/15
f 54/43/13 57/29/13 76/31/13
f 66/44/13 68/58/13 59/45/13
f 63/47/15 67/52/15 58/48/15
f 61/50/13 66/44/13 53/46/13
f 67/52/15 65/54/15 55/53/15
f 65/54/15 64/59/15 49/55/15
f 62/56/14 63/47/14 51/49/14
f 68/58/13 62/56/13 47/57/13
f 71/33/15 75/38/15 67/52/15
f 69/41/13 74/40/13 66/44/13
f 75/38/15 73/36/15 65/54/15
f 73/36/15 72/35/15 64/59/15
f 70/30/14 71/33/14 63/47/14
f 76/31/13 70/30/13 62/56/13
o Window
v -2.384344 1.009757 -0.553788
v -2.384344 2.294119 -0.553788
v -2.384344 1.009757 -1.880939
v -2.384344 2.294119 -1.880939
v -2.330905 1.009757 -0.553788
v -2.330905 2.294119 -0.553788
v -2.330905 1.009757 -1.880939
v -2.330905 2.294119 -1.880939
v -2.330905 2.237602 -1.822540
v -2.330905 1.066274 -1.822540
v -2.330905 1.066274 -0.612188
v -2.330905 2.237602 -0.612188
v -2.383397 2.237602 -1.822540
v -2.383397 1.066274 -1.822540
v -2.383397 1.066274 -0.612188
v -2.383397 2.237602 -0.612188
vn -0.0000 -0.0000 -1.0000
vn 1.0000 -0.0000 -0.0000
vn -0.0000 -0.0000 1.0000
vn -0.0000 -1.0000 -0.0000
vn -0.0000 1.0000 -0.0000
vt 0.625000 0.250000
vt 0.375000 0.500000
vt 0.375000 0.250000
vt 0.375000 0.750000
vt 0.625000 0.750000
vt 0.375000 1.000000
vt 0.125000 0.750000
vt 0.125000 0.500000
vt 0.875000 0.500000
vt 0.625000 0.500000
vt 0.625000 1.000000
vt 0.875000 0.750000
s 0
usemtl Wood_clear
f 80/61/16 83/62/16 79/63/16
f 81/64/17 88/65/17 82/65/17
f 82/65/18 77/66/18 81/64/18
f 83/62/19 77/67/19 79/68/19
f 80/69/20 82/65/20 84/70/20
f 87/64/16 92/65/16 88/65/16
f 83/62/17 87/64/17 81/64/17
f 82/65/17 85/70/17 84/70/17
f 84/70/17 86/62/17 83/62/17
f 86/62/20 91/64/20 87/64/20
f 88/65/19 89/70/19 85/70/19
f 85/70/18 90/62/18 86/62/18
f 80/61/16 84/70/16 83/62/16
f 81/64/17 87/64/17 88/65/17
f 82/65/18 78/71/18 77/66/18
f 83/62/19 81/64/19 77/67/19
f 80/69/20 78/72/20 82/65/20
f 87/64/16 91/64/16 92/65/16
f 83/62/17 86/62/17 87/64/17
f 82/65/17 88/65/17 85/70/17
f 84/70/17 85/70/17 86/62/17
f 86/62/20 90/62/20 91/64/20
f 88/65/19 92/65/19 89/70/19
f 85/70/18 89/70/18 90/62/18
o Tree
v -6.569591 0.021938 -4.087616
v -6.382297 0.021938 -4.069170
v -6.202200 0.021938 -4.014538
v -6.036222 0.021938 -3.925821
v -5.890741 0.021938 -3.806428
v -5.771348 0.021938 -3.660947
v -5.682631 0.021938 -3.494969
v -5.627999 0.021938 -3.314872
v -5.609552 0.021938 -3.127578
v -5.627999 0.021938 -2.940284
v -5.682631 0.021938 -2.760187
v -5.771348 0.021938 -2.594209
v -5.890741 0.021938 -2.448728
v -6.036222 0.021938 -2.329335
v -6.202200 0.021938 -2.240618
v -6.382297 0.021938 -2.185987
v -6.569591 0.021938 -2.167540
v -6.756885 0.021938 -2.185987
v -6.936981 0.021938 -2.240618
v -7.102959 0.021938 -2.329335
v -7.248440 0.021938 -2.448728
v -7.367833 0.021938 -2.594209
v -7.456551 0.021938 -2.760187
v -7.511182 0.021938 -2.940284
v -7.529629 0.021938 -3.127578
v -7.511182 0.021938 -3.314872
v -7.456551 0.021938 -3.494969
v -7.367833 0.021938 -3.660947
v -7.248440 0.021938 -3.806428
v -7.102959 0.021938 -3.925821
v -6.936981 0.021938 -4.014538
v -6.756885 0.021938 -4.069170
v -6.569591 3.319366 -3.127578
vn 0.0941 0.2783 -0.9559
vn 0.2788 0.2783 -0.9191
vn 0.4528 0.2783 -0.8471
vn 0.6093 0.2783 -0.7425
vn 0.7425 0.2783 -0.6093
vn 0.8471 0.2783 -0.4528
vn 0.9191 0.2783 -0.2788
vn 0.9559 0.2783 -0.0941
vn 0.9559 0.2783 0.0941
vn 0.9191 0.2783 0.2788
vn 0.8471 0.2783 0.4528
vn 0.7425 0.2783 0.6093
vn 0.6093 0.2783 0.7425
vn 0.4528 0.2783 0.8471
vn 0.2788 0.2783 0.9191
vn 0.0941 0.2783 0.9559
vn -0.0941 0.2783 0.9559
vn -0.2788 0.2783 0.9191
vn -0.4528 0.2783 0.8471
vn -0.6093 0.2783 0.7425
vn -0.7425 0.2783 0.6093
vn -0.8471 0.2783 0.4528
vn -0.9191 0.2783 0.2788
vn -0.9559 0.2783 0.0941
vn -0.9559 0.2783 -0.0941
vn -0.9191 0.2783 -0.2788
vn -0.8471 0.2783 -0.4528
vn -0.7425 0.2783 -0.6093
vn -0.6093 0.2783 -0.7425
vn -0.4528 0.2783 -0.8471
vn -0.0000 -1.0000 -0.0000
vn -0.2788 0.2783 -0.9191
vn -0.0941 0.2783 -0.9559
vt 0.250000 0.490000
vt 0.250000 0.250000
vt 0.296822 0.485388
vt 0.341844 0.471731
vt 0.383337 0.449553
vt 0.419706 0.419706
vt 0.449553 0.383337
vt 0.471731 0.341844
vt 0.485388 0.296822
vt 0.490000 0.250000
vt 0.485388 0.203178
vt 0.471731 0.158156
vt 0.449553 0.116663
vt 0.419706 0.080294
vt 0.383337 0.050447
vt 0.341844 0.028269
vt 0.296822 0.014612
vt 0.250000 0.010000
vt 0.203178 0.014612
vt 0.158156 0.028269
vt 0.116663 0.050447
vt 0.080294 0.080294
vt 0.050447 0.116663
vt 0.028269 0.158156
vt 0.014612 0.203178
vt 0.010000 0.250000
vt 0.014612 0.296822
vt 0.028269 0.341844
vt 0.050447 0.383337
vt 0.080294 0.419706
vt 0.116663 0.449553
vt 0.158156 0.471731
vt 0.796822 0.014612
vt 0.514612 0.203178
vt 0.703178 0.485388
vt 0.203178 0.485388
vt 0.750000 0.490000
vt 0.796822 0.485388
vt 0.841844 0.471731
vt 0.883337 0.449553
vt 0.919706 0.419706
vt 0.949553 0.383337
vt 0.971731 0.341844
vt 0.985388 0.296822
vt 0.990000 0.250000
vt 0.985388 0.203178
vt 0.971731 0.158156
vt 0.949553 0.116663
vt 0.919706 0.080294
vt 0.883337 0.050447
vt 0.841844 0.028269
vt 0.750000 0.010000
vt 0.703178 0.014612
vt 0.658156 0.028269
vt 0.616663 0.050447
vt 0.580294 0.080294
vt 0.550447 0.116663
vt 0.528269 0.158156
vt 0.510000 0.250000
vt 0.514612 0.296822
vt 0.528269 0.341844
vt 0.550447 0.383337
vt 0.580294 0.419706
vt 0.616663 0.449553
vt 0.658156 0.471731
s 0
usemtl Tree
f 93/73/21 125/74/21 94/75/21
f 94/75/22 125/74/22 95/76/22
f 95/76/23 125/74/23 96/77/23
f 96/77/24 125/74/24 97/78/24
f 97/78/25 125/74/25 98/79/25
f 98/79/26 125/74/26 99/80/26
f 99/80/27 125/74/27 100/81/27
f 100/81/28 125/74/28 101/82/28
f 101/82/29 125/74/29 102/83/29
f 102/83/30 125/74/30 103/84/30
f 103/84/31 125/74/31 104/85/31
f 104/85/32 125/74/32 105/86/32
f 105/86/33 125/74/33 106/87/33
f 106/87/34 125/74/34 107/88/34
f 107/88/35 125/74/35 108/89/35
f 108/89/36 125/74/36 109/90/36
f 109/90/37 125/74/37 110/91/37
f 110/91/38 125/74/38 111/92/38
f 111/92/39 125/74/39 112/93/39
f 112/93/40 125/74/40 113/94/40
f 113/94/41 125/74/41 114/95/41
f 114/95/42 125/74/42 115/96/42
f 115/96/43 125/74/43 116/97/43
f 116/97/44 125/74/44 117/98/44
f 117/98/45 125/74/45 118/99/45
f 118/99/46 125/74/46 119/100/46
f 119/100/47 125/74/47 120/101/47
f 120/101/48 125/74/48 121/102/48
f 121/102/49 125/74/49 122/103/49
f 122/103/50 125/74/50 123/104/50
f 108/105/51 116/106/51 124/107/51
f 123/104/52 125/74/52 124/108/52
f 124/108/53 125/74/53 93/73/53
f 124/107/51 93/109/51 94/110/51
f 94/110/51 95/111/51 96/112/51
f 96/112/51 97/113/51 98/114/51
f 98/114/51 99/115/51 100/116/51
f 100/116/51 101/117/51 102/118/51
f 102/118/51 103/119/51 104/120/51
f 104/120/51 105/121/51 106/122/51
f 106/122/51 107/123/51 108/105/51
f 108/105/51 109/124/51 110/125/51
f 110/125/51 111/126/51 112/127/51
f 112/127/51 113/128/51 114/129/51
f 114/129/51 115/130/51 116/106/51
f 116/106/51 117/131/51 118/132/51
f 118/132/51 119/133/51 120/134/51
f 120/134/51 121/135/51 122/136/51
f 122/136/51 123/137/51 124/107/51
f 124/107/51 94/110/51 96/112/51
f 96/112/51 98/114/51 100/116/51
f 100/116/51 102/118/51 104/120/51
f 104/120/51 106/122/51 108/105/51
f 108/105/51 110/125/51 112/127/51
f 112/127/51 114/129/51 116/106/51
f 116/106/51 118/132/51 120/134/51
f 120/134/51 122/136/51 124/107/51
f 124/107/51 96/112/51 100/116/51
f 100/116/51 104/120/51 108/105/51
f 108/105/51 112/127/51 116/106/51
f 116/106/51 120/134/51 124/107/51
f 124/107/51 100/116/51 108/105/51
o Tree.001
v -5.588915 0.021938 -5.103592
v -5.401621 0.021938 -5.085145
v -5.221524 0.021938 -5.030514
v -5.055546 0.021938 -4.941796
v -4.910065 0.021938 -4.822403
v -4.790672 0.021938 -4.676922
v -4.701955 0.021938 -4.510944
v -4.647324 0.021938 -4.330848
v -4.628877 0.021938 -4.143554
v -4.647324 0.021938 -3.956259
v -4.701955 0.021938 -3.776163
v -4.790672 0.021938 -3.610185
v -4.910065 0.021938 -3.464704
v -5.055546 0.021938 -3.345311
v -5.221524 0.021938 -3.256594
v -5.401621 0.021938 -3.201962
v -5.588915 0.021938 -3.183515
v -5.776209 0.021938 -3.201962
v -5.956306 0.021938 -3.256594
v -6.122283 0.021938 -3.345311
v -6.267765 0.021938 -3.464704
v -6.387157 0.021938 -3.610185
v -6.475875 0.021938 -3.776163
v -6.530506 0.021938 -3.956259
v -6.548953 0.021938 -4.143554
v -6.530506 0.021938 -4.330848
v -6.475875 0.021938 -4.510944
v -6.387157 0.021938 -4.676922
v -6.267765 0.021938 -4.822403
v -6.122283 0.021938 -4.941796
v -5.956306 0.021938 -5.030514
v -5.776209 0.021938 -5.085145
v -5.588915 3.319366 -4.143554
vn 0.0941 0.2783 -0.9559
vn 0.2788 0.2783 -0.9191
vn 0.4528 0.2783 -0.8471
vn 0.6093 0.2783 -0.7425
vn 0.7425 0.2783 -0.6093
vn 0.8471 0.2783 -0.4528
vn 0.9191 0.2783 -0.2788
vn 0.9559 0.2783 -0.0941
vn 0.9559 0.2783 0.0941
vn 0.9191 0.2783 0.2788
vn 0.8471 0.2783 0.4528
vn 0.7425 0.2783 0.6093
vn 0.6093 0.2783 0.7425
vn 0.4528 0.2783 0.8471
vn 0.2788 0.2783 0.9191
vn 0.0941 0.2783 0.9559
vn -0.0941 0.2783 0.9559
vn -0.2788 0.2783 0.9191
vn -0.4528 0.2783 0.8471
vn -0.6093 0.2783 0.7425
vn -0.7425 0.2783 0.6093
vn -0.8471 0.2783 0.4528
vn -0.9191 0.2783 0.2788
vn -0.9559 0.2783 0.0941
vn -0.9559 0.2783 -0.0941
vn -0.9191 0.2783 -0.2788
vn -0.8471 0.2783 -0.4528
vn -0.7425 0.2783 -0.6093
vn -0.6093 0.2783 -0.7425
vn -0.4528 0.2783 -0.8471
vn -0.0000 -1.0000 -0.0000
vn -0.2788 0.2783 -0.9191
vn -0.0941 0.2783 -0.9559
vt 0.250000 0.490000
vt 0.250000 0.250000
vt 0.296822 0.485388
vt 0.341844 0.471731
vt 0.383337 0.449553
vt 0.419706 0.419706
vt 0.449553 0.383337
vt 0.471731 0.341844
vt 0.485388 0.296822
vt 0.490000 0.250000
vt 0.485388 0.203178
vt 0.471731 0.158156
vt 0.449553 0.116663
vt 0.419706 0.080294
vt 0.383337 0.050447
vt 0.341844 0.028269
vt 0.296822 0.014612
vt 0.250000 0.010000
vt 0.203178 0.014612
vt 0.158156 0.028269
vt 0.116663 0.050447
vt 0.080294 0.080294
vt 0.050447 0.116663
vt 0.028269 0.158156
vt 0.014612 0.203178
vt 0.010000 0.250000
vt 0.014612 0.296822
vt 0.028269 0.341844
vt 0.050447 0.383337
vt 0.080294 0.419706
vt 0.116663 0.449553
vt 0.158156 0.471731
vt 0.796822 0.014612
vt 0.514612 0.203178
vt 0.703178 0.485388
vt 0.203178 0.485388
vt 0.750000 0.490000
vt 0.796822 0.485388
vt 0.841844 0.471731
vt 0.883337 0.449553
vt 0.919706 0.419706
vt 0.949553 0.383337
vt 0.971731 0.341844
vt 0.985388 0.296822
vt 0.990000 0.250000
vt 0.985388 0.203178
vt 0.971731 0.158156
vt 0.949553 0.116663
vt 0.919706 0.080294
vt 0.883337 0.050447
vt 0.841844 0.028269
vt 0.750000 0.010000
vt 0.703178 0.014612
vt 0.658156 0.028269
vt 0.616663 0.050447
vt 0.580294 0.080294
vt 0.550447 0.116663
vt 0.528269 0.158156
vt 0.510000 0.250000
vt 0.514612 0.296822
vt 0.528269 0.341844
vt 0.550447 0.383337
vt 0.580294 0.419706
vt 0.616663 0.449553
vt 0.658156 0.471731
s 0
usemtl Tree
f 126/138/54 158/139/54 127/140/54
f 127/140/55 158/139/55 128/141/55
f 128/141/56 158/139/56 129/142/56
f 129/142/57 158/139/57 130/143/57
f 130/143/58 158/139/58 131/144/58
f 131/144/59 158/139/59 132/145/59
f 132/145/60 158/139/60 133/146/60
f 133/146/61 158/139/61 134/147/61
f 134/147/62 158/139/62 135/148/62
f 135/148/63 158/139/63 136/149/63
f 136/149/64 158/139/64 137/150/64
f 137/150/65 158/139/65 138/151/65
f 138/151/66 158/139/66 139/152/66
f 139/152/67 158/139/67 140/153/67
f 140/153/68 158/139/68 141/154/68
f 141/154/69 158/139/69 142/155/69
f 142/155/70 158/139/70 143/156/70
f 143/156/71 158/139/71 144/157/71
f 144/157/72 158/139/72 145/158/72
f 145/158/73 158/139/73 146/159/73
f 146/159/74 158/139/74 147/160/74
f 147/160/75 158/139/75 148/161/75
f 148/161/76 158/139/76 149/162/76
f 149/162/77 158/139/77 150/163/77
f 150/163/78 158/139/78 151/164/78
f 151/164/79 158/139/79 152/165/79
f 152/165/80 158/139/80 153/166/80
f 153/166/81 158/139/81 154/167/81
f 154/167/82 158/139/82 155/168/82
f 155/168/83 158/139/83 156/169/83
f 141/170/84 149/171/84 157/172/84
f 156/169/85 158/139/85 157/173/85
f 157/173/86 158/139/86 126/138/86
f 157/172/84 126/174/84 127/175/84
f 127/175/84 128/176/84 129/177/84
f 129/177/84 130/178/84 131/179/84
f 131/179/84 132/180/84 133/181/84
f 133/181/84 134/182/84 135/183/84
f 135/183/84 136/184/84 137/185/84
f 137/185/84 138/186/84 139/187/84
f 139/187/84 140/188/84 141/170/84
f 141/170/84 142/189/84 143/190/84
f 143/190/84 144/191/84 145/192/84
f 145/192/84 146/193/84 147/194/84
f 147/194/84 148/195/84 149/171/84
f 149/171/84 150/196/84 151/197/84
f 151/197/84 152/198/84 153/199/84
f 153/199/84 154/200/84 155/201/84
f 155/201/84 156/202/84 157/172/84
f 157/172/84 127/175/84 129/177/84
f 129/177/84 131/179/84 133/181/84
f 133/181/84 135/183/84 137/185/84
f 137/185/84 139/187/84 141/170/84
f 141/170/84 143/190/84 145/192/84
f 145/192/84 147/194/84 149/171/84
f 149/171/84 151/197/84 153/199/84
f 153/199/84 155/201/84 157/172/84
f 157/172/84 129/177/84 133/181/84
f 133/181/84 137/185/84 141/170/84
f 141/170/84 145/192/84 149/171/84
f 149/171/84 153/199/84 157/172/84
f 157/172/84 133/181/84 141/170/84
o Roof
v -2.798871 2.640762 -3.168088
v 2.483568 2.640762 -3.168088
v 2.483568 2.640762 2.114351
v -2.798871 2.640762 2.114351
v -0.157651 4.944286 -0.526869
vn -0.0000 0.7536 -0.6573
vn 0.6573 0.7536 -0.0000
vn -0.6573 0.7536 -0.0000
vt 0.250000 0.490000
vt 0.250000 0.250000
vt 0.490000 0.250000
vt 0.250000 0.010000
vt 0.010000 0.250000
s 0
usemtl Wood_dark
f 159/203/87 163/204/87 160/205/87
f 160/205/88 163/204/88 161/206/88
f 162/207/89 163/204/89 159/203/89
o Floor
v -2.346766 0.000000 0.214700
v 2.075566 0.000000 0.214700
v -2.346766 0.000000 -2.428709
v 2.075566 0.000000 -2.428709
vn -0.0000 1.0000 -0.0000
vt 1.000000 0.000000
vt 0.000000 1.000000
vt 0.000000 0.000000
vt 1.000000 1.000000
s 0
usemtl Floor
f 165/208/90 166/209/90 164/210/90
f 165/208/90 167/211/90 166/209/90
