# Blender 3.6.1
# www.blender.org
mtllib libraryBG.mtl
o Desk
v 1.054657 0.903253 -1.107802
v 1.054657 0.016428 -1.107802
v 1.054657 0.903253 -0.302414
v 1.054657 0.016428 -0.302414
v -1.046259 0.903253 -1.107802
v -1.046259 0.016428 -1.107802
v -1.046259 0.903253 -0.302414
v -1.046259 0.016428 -0.302414
vn -0.0000 1.0000 -0.0000
vn -0.0000 -0.0000 1.0000
vn -1.0000 -0.0000 -0.0000
vn -0.0000 -1.0000 -0.0000
vn 1.0000 -0.0000 -0.0000
vn -0.0000 -0.0000 -1.0000
vt 0.875000 0.500000
vt 0.625000 0.750000
vt 0.625000 0.500000
vt 0.375000 1.000000
vt 0.375000 0.750000
vt 0.625000 0.000000
vt 0.375000 0.250000
vt 0.375000 0.000000
vt 0.375000 0.500000
vt 0.125000 0.750000
vt 0.125000 0.500000
vt 0.625000 0.250000
vt 0.875000 0.750000
vt 0.625000 1.000000
s 0
usemtl Wood_dark
f 5/1/1 3/2/1 1/3/1
f 3/2/2 8/4/2 4/5/2
f 7/6/3 6/7/3 8/8/3
f 2/9/4 8/10/4 6/11/4
f 1/3/5 4/5/5 2/9/5
f 5/12/6 2/9/6 6/7/6
f 5/1/1 7/13/1 3/2/1
f 3/2/2 7/14/2 8/4/2
f 7/6/3 5/12/3 6/7/3
f 2/9/4 4/5/4 8/10/4
f 1/3/5 3/2/5 4/5/5
f 5/12/6 1/3/6 2/9/6
o ShelfRight
v -0.571678 0.003130 -2.033347
v -0.571678 2.243559 -2.033347
v -0.571678 0.003130 -2.409638
v -0.571678 2.243559 -2.409638
v 0.845264 0.003130 -2.033347
v 0.845264 2.243559 -2.033347
v 0.845264 0.003130 -2.409638
v 0.845264 2.243559 -2.409638
v -0.571678 0.746294 -2.033347
v -0.571678 1.500395 -2.033347
v 0.845264 1.500395 -2.033347
v 0.845264 0.746294 -2.033347
v -0.511339 0.799433 -2.033347
v -0.511339 1.447257 -2.033347
v 0.784925 1.447257 -2.033347
v 0.784925 0.799433 -2.033347
v -0.511339 0.065014 -2.033347
v 0.784925 0.065014 -2.033347
v -0.511339 0.746294 -2.033347
v 0.784925 0.746294 -2.033347
v 0.784925 2.176577 -2.033347
v -0.511339 2.176577 -2.033347
v 0.784925 1.500395 -2.033347
v -0.511339 1.500395 -2.033347
v -0.511339 0.799433 -2.377918
v -0.511339 1.447257 -2.377918
v 0.784925 1.447257 -2.377918
v 0.784925 0.799433 -2.377918
v -0.511339 0.065014 -2.377918
v 0.784925 0.065014 -2.377918
v -0.511339 0.746294 -2.377918
v 0.784925 0.746294 -2.377918
v 0.784925 2.176577 -2.377918
v -0.511339 2.176577 -2.377918
v 0.784925 1.500395 -2.377918
v -0.511339 1.500395 -2.377918
vn -1.0000 -0.0000 -0.0000
vn -0.0000 -0.0000 -1.0000
vn 1.0000 -0.0000 -0.0000
vn -0.0000 -0.0000 1.0000
vn -0.0000 -1.0000 -0.0000
vn -0.0000 1.0000 -0.0000
vt 0.625000 0.000000
vt 0.375000 0.250000
vt 0.375000 0.000000
vt 0.625000 0.250000
vt 0.375000 0.500000
vt 0.625000 0.500000
vt 0.375000 0.750000
vt 0.625000 0.750000
vt 0.125000 0.750000
vt 0.125000 0.500000
vt 0.875000 0.500000
vt 0.875000 0.750000
vt 0.375000 1.000000
vt 0.625000 1.000000
s 0
usemtl Wood_light
f 10/15/7 11/16/7 9/17/7
f 12/18/8 15/19/8 11/16/8
f 16/20/9 13/21/9 15/19/9
f 19/22/10 29/22/10 31/22/10
f 15/19/11 9/23/11 11/24/11
f 12/25/12 14/22/12 16/20/12
f 18/26/10 23/22/10 19/22/10
f 13/21/12 19/22/12 20/21/12
f 10/15/12 17/17/12 18/15/12
f 20/21/10 26/21/10 13/21/10
f 23/22/7 36/21/7 24/21/7
f 19/22/10 24/21/10 20/21/10
f 20/21/10 21/23/10 17/23/10
f 17/17/10 22/15/10 18/15/10
f 32/15/9 42/15/9 30/15/9
f 20/21/12 27/23/12 28/21/12
f 13/21/10 25/23/10 9/23/10
f 17/17/10 25/17/10 27/17/10
f 25/17/9 39/17/9 27/17/9
f 18/26/12 31/22/12 32/26/12
f 10/26/10 29/22/10 14/22/10
f 18/15/10 30/15/10 10/15/10
f 35/22/10 33/27/10 36/21/10
f 38/21/10 39/23/10 37/23/10
f 42/26/10 43/22/10 41/22/10
f 26/21/12 37/23/12 25/23/12
f 29/22/7 43/22/7 31/22/7
f 24/21/12 33/23/12 21/23/12
f 27/23/11 40/21/11 28/21/11
f 30/26/11 41/22/11 29/22/11
f 22/26/11 35/22/11 23/22/11
f 28/21/7 38/21/7 26/21/7
f 31/22/12 44/26/12 32/26/12
f 21/17/9 34/15/9 22/15/9
f 10/15/7 12/18/7 11/16/7
f 12/18/8 16/20/8 15/19/8
f 16/20/9 14/22/9 13/21/9
f 19/22/10 14/22/10 29/22/10
f 15/19/11 13/21/11 9/23/11
f 12/25/12 10/26/12 14/22/12
f 18/26/10 22/26/10 23/22/10
f 13/21/12 14/22/12 19/22/12
f 10/15/12 9/17/12 17/17/12
f 20/21/10 28/21/10 26/21/10
f 23/22/7 35/22/7 36/21/7
f 19/22/10 23/22/10 24/21/10
f 20/21/10 24/21/10 21/23/10
f 17/17/10 21/17/10 22/15/10
f 32/15/9 44/15/9 42/15/9
f 20/21/12 17/23/12 27/23/12
f 13/21/10 26/21/10 25/23/10
f 17/17/10 9/17/10 25/17/10
f 25/17/9 37/17/9 39/17/9
f 18/26/12 19/22/12 31/22/12
f 10/26/10 30/26/10 29/22/10
f 18/15/10 32/15/10 30/15/10
f 35/22/10 34/28/10 33/27/10
f 38/21/10 40/21/10 39/23/10
f 42/26/10 44/26/10 43/22/10
f 26/21/12 38/21/12 37/23/12
f 29/22/7 41/22/7 43/22/7
f 24/21/12 36/21/12 33/23/12
f 27/23/11 39/23/11 40/21/11
f 30/26/11 42/26/11 41/22/11
f 22/26/11 34/26/11 35/22/11
f 28/21/7 40/21/7 38/21/7
f 31/22/12 43/22/12 44/26/12
f 21/17/9 33/17/9 34/15/9
o Tree
v -3.883233 0.021938 -7.236472
v -3.695939 0.021938 -7.218025
v -3.515842 0.021938 -7.163393
v -3.349864 0.021938 -7.074676
v -3.204383 0.021938 -6.955283
v -3.084991 0.021938 -6.809802
v -2.996273 0.021938 -6.643824
v -2.941642 0.021938 -6.463727
v -2.923195 0.021938 -6.276433
v -2.941642 0.021938 -6.089139
v -2.996273 0.021938 -5.909043
v -3.084991 0.021938 -5.743065
v -3.204383 0.021938 -5.597584
v -3.349864 0.021938 -5.478191
v -3.515842 0.021938 -5.389474
v -3.695939 0.021938 -5.334842
v -3.883233 0.021938 -5.316395
v -4.070527 0.021938 -5.334842
v -4.250624 0.021938 -5.389474
v -4.416602 0.021938 -5.478191
v -4.562083 0.021938 -5.597584
v -4.681476 0.021938 -5.743065
v -4.770193 0.021938 -5.909043
v -4.824824 0.021938 -6.089139
v -4.843271 0.021938 -6.276433
v -4.824824 0.021938 -6.463727
v -4.770193 0.021938 -6.643824
v -4.681476 0.021938 -6.809802
v -4.562083 0.021938 -6.955283
v -4.416602 0.021938 -7.074676
v -4.250624 0.021938 -7.163393
v -4.070527 0.021938 -7.218025
v -3.883233 3.319366 -6.276433
vn 0.0941 0.2783 -0.9559
vn 0.2788 0.2783 -0.9191
vn 0.4528 0.2783 -0.8471
vn 0.6093 0.2783 -0.7425
vn 0.7425 0.2783 -0.6093
vn 0.8471 0.2783 -0.4528
vn 0.9191 0.2783 -0.2788
vn 0.9559 0.2783 -0.0941
vn 0.9559 0.2783 0.0941
vn 0.9191 0.2783 0.2788
vn 0.8471 0.2783 0.4528
vn 0.7425 0.2783 0.6093
vn 0.6093 0.2783 0.7425
vn 0.4528 0.2783 0.8471
vn 0.2788 0.2783 0.9191
vn 0.0941 0.2783 0.9559
vn -0.0941 0.2783 0.9559
vn -0.2788 0.2783 0.9191
vn -0.4528 0.2783 0.8471
vn -0.6093 0.2783 0.7425
vn -0.7425 0.2783 0.6093
vn -0.8471 0.2783 0.4528
vn -0.9191 0.2783 0.2788
vn -0.9559 0.2783 0.0941
vn -0.9559 0.2783 -0.0941
vn -0.9191 0.2783 -0.2788
vn -0.8471 0.2783 -0.4528
vn -0.7425 0.2783 -0.6093
vn -0.6093 0.2783 -0.7425
vn -0.4528 0.2783 -0.8471
vn -0.0000 -1.0000 -0.0000
vn -0.2788 0.2783 -0.9191
vn -0.0941 0.2783 -0.9559
vt 0.250000 0.490000
vt 0.250000 0.250000
vt 0.296822 0.485388
vt 0.341844 0.471731
vt 0.383337 0.449553
vt 0.419706 0.419706
vt 0.449553 0.383337
vt 0.471731 0.341844
vt 0.485388 0.296822
vt 0.490000 0.250000
vt 0.485388 0.203178
vt 0.471731 0.158156
vt 0.449553 0.116663
vt 0.419706 0.080294
vt 0.383337 0.050447
vt 0.341844 0.028269
vt 0.296822 0.014612
vt 0.250000 0.010000
vt 0.203178 0.014612
vt 0.158156 0.028269
vt 0.116663 0.050447
vt 0.080294 0.080294
vt 0.050447 0.116663
vt 0.028269 0.158156
vt 0.014612 0.203178
vt 0.010000 0.250000
vt 0.014612 0.296822
vt 0.028269 0.341844
vt 0.050447 0.383337
vt 0.080294 0.419706
vt 0.116663 0.449553
vt 0.158156 0.471731
vt 0.796822 0.014612
vt 0.514612 0.203178
vt 0.703178 0.485388
vt 0.203178 0.485388
vt 0.750000 0.490000
vt 0.796822 0.485388
vt 0.841844 0.471731
vt 0.883337 0.449553
vt 0.919706 0.419706
vt 0.949553 0.383337
vt 0.971731 0.341844
vt 0.985388 0.296822
vt 0.990000 0.250000
vt 0.985388 0.203178
vt 0.971731 0.158156
vt 0.949553 0.116663
vt 0.919706 0.080294
vt 0.883337 0.050447
vt 0.841844 0.028269
vt 0.750000 0.010000
vt 0.703178 0.014612
vt 0.658156 0.028269
vt 0.616663 0.050447
vt 0.580294 0.080294
vt 0.550447 0.116663
vt 0.528269 0.158156
vt 0.510000 0.250000
vt 0.514612 0.296822
vt 0.528269 0.341844
vt 0.550447 0.383337
vt 0.580294 0.419706
vt 0.616663 0.449553
vt 0.658156 0.471731
s 0
usemtl Tree
f 45/29/13 77/30/13 46/31/13
f 46/31/14 77/30/14 47/32/14
f 47/32/15 77/30/15 48/33/15
f 48/33/16 77/30/16 49/34/16
f 49/34/17 77/30/17 50/35/17
f 50/35/18 77/30/18 51/36/18
f 51/36/19 77/30/19 52/37/19
f 52/37/20 77/30/20 53/38/20
f 53/38/21 77/30/21 54/39/21
f 54/39/22 77/30/22 55/40/22
f 55/40/23 77/30/23 56/41/23
f 56/41/24 77/30/24 57/42/24
f 57/42/25 77/30/25 58/43/25
f 58/43/26 77/30/26 59/44/26
f 59/44/27 77/30/27 60/45/27
f 60/45/28 77/30/28 61/46/28
f 61/46/29 77/30/29 62/47/29
f 62/47/30 77/30/30 63/48/30
f 63/48/31 77/30/31 64/49/31
f 64/49/32 77/30/32 65/50/32
f 65/50/33 77/30/33 66/51/33
f 66/51/34 77/30/34 67/52/34
f 67/52/35 77/30/35 68/53/35
f 68/53/36 77/30/36 69/54/36
f 69/54/37 77/30/37 70/55/37
f 70/55/38 77/30/38 71/56/38
f 71/56/39 77/30/39 72/57/39
f 72/57/40 77/30/40 73/58/40
f 73/58/41 77/30/41 74/59/41
f 74/59/42 77/30/42 75/60/42
f 60/61/43 68/62/43 76/63/43
f 75/60/44 77/30/44 76/64/44
f 76/64/45 77/30/45 45/29/45
f 76/63/43 45/65/43 46/66/43
f 46/66/43 47/67/43 48/68/43
f 48/68/43 49/69/43 50/70/43
f 50/70/43 51/71/43 52/72/43
f 52/72/43 53/73/43 54/74/43
f 54/74/43 55/75/43 56/76/43
f 56/76/43 57/77/43 58/78/43
f 58/78/43 59/79/43 60/61/43
f 60/61/43 61/80/43 62/81/43
f 62/81/43 63/82/43 64/83/43
f 64/83/43 65/84/43 66/85/43
f 66/85/43 67/86/43 68/62/43
f 68/62/43 69/87/43 70/88/43
f 70/88/43 71/89/43 72/90/43
f 72/90/43 73/91/43 74/92/43
f 74/92/43 75/93/43 76/63/43
f 76/63/43 46/66/43 48/68/43
f 48/68/43 50/70/43 52/72/43
f 52/72/43 54/74/43 56/76/43
f 56/76/43 58/78/43 60/61/43
f 60/61/43 62/81/43 64/83/43
f 64/83/43 66/85/43 68/62/43
f 68/62/43 70/88/43 72/90/43
f 72/90/43 74/92/43 76/63/43
f 76/63/43 48/68/43 52/72/43
f 52/72/43 56/76/43 60/61/43
f 60/61/43 64/83/43 68/62/43
f 68/62/43 72/90/43 76/63/43
f 76/63/43 52/72/43 60/61/43
o Tree.001
v -3.110809 0.021938 -8.510065
v -2.923515 0.021938 -8.491618
v -2.743418 0.021938 -8.436987
v -2.577441 0.021938 -8.348269
v -2.431960 0.021938 -8.228876
v -2.312567 0.021938 -8.083396
v -2.223850 0.021938 -7.917418
v -2.169218 0.021938 -7.737321
v -2.150771 0.021938 -7.550027
v -2.169218 0.021938 -7.362733
v -2.223850 0.021938 -7.182636
v -2.312567 0.021938 -7.016658
v -2.431960 0.021938 -6.871177
v -2.577441 0.021938 -6.751784
v -2.743418 0.021938 -6.663067
v -2.923515 0.021938 -6.608436
v -3.110809 0.021938 -6.589989
v -3.298104 0.021938 -6.608436
v -3.478200 0.021938 -6.663067
v -3.644178 0.021938 -6.751784
v -3.789659 0.021938 -6.871177
v -3.909052 0.021938 -7.016658
v -3.997769 0.021938 -7.182636
v -4.052401 0.021938 -7.362733
v -4.070848 0.021938 -7.550027
v -4.052401 0.021938 -7.737321
v -3.997769 0.021938 -7.917418
v -3.909052 0.021938 -8.083396
v -3.789659 0.021938 -8.228876
v -3.644178 0.021938 -8.348269
v -3.478200 0.021938 -8.436987
v -3.298104 0.021938 -8.491618
v -3.110809 3.319366 -7.550027
vn 0.0941 0.2783 -0.9559
vn 0.2788 0.2783 -0.9191
vn 0.4528 0.2783 -0.8471
vn 0.6093 0.2783 -0.7425
vn 0.7425 0.2783 -0.6093
vn 0.8471 0.2783 -0.4528
vn 0.9191 0.2783 -0.2788
vn 0.9559 0.2783 -0.0941
vn 0.9559 0.2783 0.0941
vn 0.9191 0.2783 0.2788
vn 0.8471 0.2783 0.4528
vn 0.7425 0.2783 0.6093
vn 0.6093 0.2783 0.7425
vn 0.4528 0.2783 0.8471
vn 0.2788 0.2783 0.9191
vn 0.0941 0.2783 0.9559
vn -0.0941 0.2783 0.9559
vn -0.2788 0.2783 0.9191
vn -0.4528 0.2783 0.8471
vn -0.6093 0.2783 0.7425
vn -0.7425 0.2783 0.6093
vn -0.8471 0.2783 0.4528
vn -0.9191 0.2783 0.2788
vn -0.9559 0.2783 0.0941
vn -0.9559 0.2783 -0.0941
vn -0.9191 0.2783 -0.2788
vn -0.8471 0.2783 -0.4528
vn -0.7425 0.2783 -0.6093
vn -0.6093 0.2783 -0.7425
vn -0.4528 0.2783 -0.8471
vn -0.0000 -1.0000 -0.0000
vn -0.2788 0.2783 -0.9191
vn -0.0941 0.2783 -0.9559
vt 0.250000 0.490000
vt 0.250000 0.250000
vt 0.296822 0.485388
vt 0.341844 0.471731
vt 0.383337 0.449553
vt 0.419706 0.419706
vt 0.449553 0.383337
vt 0.471731 0.341844
vt 0.485388 0.296822
vt 0.490000 0.250000
vt 0.485388 0.203178
vt 0.471731 0.158156
vt 0.449553 0.116663
vt 0.419706 0.080294
vt 0.383337 0.050447
vt 0.341844 0.028269
vt 0.296822 0.014612
vt 0.250000 0.010000
vt 0.203178 0.014612
vt 0.158156 0.028269
vt 0.116663 0.050447
vt 0.080294 0.080294
vt 0.050447 0.116663
vt 0.028269 0.158156
vt 0.014612 0.203178
vt 0.010000 0.250000
vt 0.014612 0.296822
vt 0.028269 0.341844
vt 0.050447 0.383337
vt 0.080294 0.419706
vt 0.116663 0.449553
vt 0.158156 0.471731
vt 0.796822 0.014612
vt 0.514612 0.203178
vt 0.703178 0.485388
vt 0.203178 0.485388
vt 0.750000 0.490000
vt 0.796822 0.485388
vt 0.841844 0.471731
vt 0.883337 0.449553
vt 0.919706 0.419706
vt 0.949553 0.383337
vt 0.971731 0.341844
vt 0.985388 0.296822
vt 0.990000 0.250000
vt 0.985388 0.203178
vt 0.971731 0.158156
vt 0.949553 0.116663
vt 0.919706 0.080294
vt 0.883337 0.050447
vt 0.841844 0.028269
vt 0.750000 0.010000
vt 0.703178 0.014612
vt 0.658156 0.028269
vt 0.616663 0.050447
vt 0.580294 0.080294
vt 0.550447 0.116663
vt 0.528269 0.158156
vt 0.510000 0.250000
vt 0.514612 0.296822
vt 0.528269 0.341844
vt 0.550447 0.383337
vt 0.580294 0.419706
vt 0.616663 0.449553
vt 0.658156 0.471731
s 0
usemtl Tree
f 78/94/46 110/95/46 79/96/46
f 79/96/47 110/95/47 80/97/47
f 80/97/48 110/95/48 81/98/48
f 81/98/49 110/95/49 82/99/49
f 82/99/50 110/95/50 83/100/50
f 83/100/51 110/95/51 84/101/51
f 84/101/52 110/95/52 85/102/52
f 85/102/53 110/95/53 86/103/53
f 86/103/54 110/95/54 87/104/54
f 87/104/55 110/95/55 88/105/55
f 88/105/56 110/95/56 89/106/56
f 89/106/57 110/95/57 90/107/57
f 90/107/58 110/95/58 91/108/58
f 91/108/59 110/95/59 92/109/59
f 92/109/60 110/95/60 93/110/60
f 93/110/61 110/95/61 94/111/61
f 94/111/62 110/95/62 95/112/62
f 95/112/63 110/95/63 96/113/63
f 96/113/64 110/95/64 97/114/64
f 97/114/65 110/95/65 98/115/65
f 98/115/66 110/95/66 99/116/66
f 99/116/67 110/95/67 100/117/67
f 100/117/68 110/95/68 101/118/68
f 101/118/69 110/95/69 102/119/69
f 102/119/70 110/95/70 103/120/70
f 103/120/71 110/95/71 104/121/71
f 104/121/72 110/95/72 105/122/72
f 105/122/73 110/95/73 106/123/73
f 106/123/74 110/95/74 107/124/74
f 107/124/75 110/95/75 108/125/75
f 93/126/76 101/127/76 109/128/76
f 108/125/77 110/95/77 109/129/77
f 109/129/78 110/95/78 78/94/78
f 109/128/76 78/130/76 79/131/76
f 79/131/76 80/132/76 81/133/76
f 81/133/76 82/134/76 83/135/76
f 83/135/76 84/136/76 85/137/76
f 85/137/76 86/138/76 87/139/76
f 87/139/76 88/140/76 89/141/76
f 89/141/76 90/142/76 91/143/76
f 91/143/76 92/144/76 93/126/76
f 93/126/76 94/145/76 95/146/76
f 95/146/76 96/147/76 97/148/76
f 97/148/76 98/149/76 99/150/76
f 99/150/76 100/151/76 101/127/76
f 101/127/76 102/152/76 103/153/76
f 103/153/76 104/154/76 105/155/76
f 105/155/76 106/156/76 107/157/76
f 107/157/76 108/158/76 109/128/76
f 109/128/76 79/131/76 81/133/76
f 81/133/76 83/135/76 85/137/76
f 85/137/76 87/139/76 89/141/76
f 89/141/76 91/143/76 93/126/76
f 93/126/76 95/146/76 97/148/76
f 97/148/76 99/150/76 101/127/76
f 101/127/76 103/153/76 105/155/76
f 105/155/76 107/157/76 109/128/76
f 109/128/76 81/133/76 85/137/76
f 85/137/76 89/141/76 93/126/76
f 93/126/76 97/148/76 101/127/76
f 101/127/76 105/155/76 109/128/76
f 109/128/76 85/137/76 93/126/76
o Roof
v -2.798871 2.640762 -3.168088
v 2.483568 2.640762 -3.168088
v 2.483568 2.640762 2.114351
v -2.798871 2.640762 2.114351
v -0.157651 4.944286 -0.526869
vn -0.0000 0.7536 -0.6573
vn 0.6573 0.7536 -0.0000
vn -0.6573 0.7536 -0.0000
vt 0.250000 0.490000
vt 0.250000 0.250000
vt 0.490000 0.250000
vt 0.250000 0.010000
vt 0.010000 0.250000
s 0
usemtl Wood_dark
f 111/159/79 115/160/79 112/161/79
f 112/161/80 115/160/80 113/162/80
f 114/163/81 115/160/81 111/159/81
o Floor
v -2.346766 0.000000 0.214700
v 2.075566 0.000000 0.214700
v -2.346766 0.000000 -2.428709
v 2.075566 0.000000 -2.428709
vn -0.0000 1.0000 -0.0000
vt 1.000000 0.000000
vt 0.000000 1.000000
vt 0.000000 0.000000
vt 1.000000 1.000000
s 0
usemtl Floor
f 117/164/82 118/165/82 116/166/82
f 117/164/82 119/167/82 118/165/82
o Building
v -2.331165 -0.008440 0.281424
v -2.331165 2.594148 0.281424
v -2.331165 -0.008440 -2.419271
v -2.331165 2.594148 -2.419271
v 2.064667 -0.008440 0.281424
v 2.064667 2.594148 0.281424
v 2.064667 -0.008440 -2.419271
v 2.064667 2.594148 -2.419271
v -2.044113 -0.008440 -2.419271
v -2.044113 2.594148 -2.419271
v -0.788893 2.594148 -2.419271
v -0.788893 -0.008440 -2.419271
v -2.331165 1.292854 0.281424
v -2.331165 1.292854 -2.419271
v 2.064667 1.292854 -2.419271
v 2.064667 1.292854 0.281424
v -2.044113 1.204189 -2.419271
v -0.788893 1.204189 -2.419271
v -2.331165 2.346779 0.281424
v -2.331165 2.346779 -2.419271
v 2.064667 2.346779 -2.419271
v 2.064667 2.346779 0.281424
v -2.044113 2.354448 -2.419271
v -0.788893 2.354448 -2.419271
vn -1.0000 -0.0000 -0.0000
vn -0.0000 -0.0000 -1.0000
vn 1.0000 -0.0000 -0.0000
vt 0.625000 0.000000
vt 0.601238 0.250000
vt 0.601238 0.000000
vt 0.601238 0.337712
vt 0.625000 0.500000
vt 0.601238 0.500000
vt 0.601238 0.750000
vt 0.625000 0.250000
vt 0.601238 0.266325
vt 0.625000 0.266325
vt 0.500000 0.266325
vt 0.375000 0.337712
vt 0.375000 0.266325
vt 0.375000 0.250000
vt 0.500000 0.500000
vt 0.375000 0.750000
vt 0.375000 0.500000
vt 0.500000 0.337712
vt 0.500000 0.000000
vt 0.375000 0.000000
vt 0.500000 0.250000
vt 0.500000 0.750000
vt 0.625000 0.337712
vt 0.625000 0.750000
s 0
usemtl Brick
f 121/168/83 139/169/83 138/170/83
f 143/171/84 127/172/84 140/173/84
f 127/172/85 141/174/85 140/173/85
f 123/175/84 142/176/84 139/169/84
f 129/177/84 143/171/84 142/176/84
f 136/178/84 131/179/84 128/180/84
f 122/181/84 136/178/84 128/180/84
f 134/182/85 124/183/85 126/184/85
f 137/185/84 126/184/84 131/179/84
f 132/186/83 122/181/83 120/187/83
f 133/188/84 142/176/84 136/178/84
f 140/173/85 135/189/85 134/182/85
f 143/171/84 134/182/84 137/185/84
f 138/170/83 133/188/83 132/186/83
f 121/168/83 123/175/83 139/169/83
f 143/171/84 130/190/84 127/172/84
f 127/172/85 125/191/85 141/174/85
f 123/175/84 129/177/84 142/176/84
f 129/177/84 130/190/84 143/171/84
f 136/178/84 137/185/84 131/179/84
f 122/181/84 133/188/84 136/178/84
f 134/182/85 135/189/85 124/183/85
f 137/185/84 134/182/84 126/184/84
f 132/186/83 133/188/83 122/181/83
f 133/188/84 139/169/84 142/176/84
f 140/173/85 141/174/85 135/189/85
f 143/171/84 140/173/84 134/182/84
f 138/170/83 139/169/83 133/188/83
o Window
v -2.044584 1.172053 -2.380730
v -2.044584 2.357762 -2.380730
v -2.044584 1.172053 -2.431386
v -2.044584 2.357762 -2.431386
v -0.771161 1.172053 -2.380730
v -0.771161 2.357762 -2.380730
v -0.771161 1.172053 -2.431386
v -0.771161 2.357762 -2.431386
v -1.993350 1.219758 -2.380730
v -1.993350 2.310057 -2.380730
v -0.822395 2.310057 -2.380730
v -0.822395 1.219758 -2.380730
v -1.993350 1.219758 -2.431641
v -1.993350 2.310057 -2.431641
v -0.822395 2.310057 -2.431641
v -0.822395 1.219758 -2.431641
vn -1.0000 -0.0000 -0.0000
vn 1.0000 -0.0000 -0.0000
vn -0.0000 -0.0000 1.0000
vn -0.0000 -1.0000 -0.0000
vn -0.0000 1.0000 -0.0000
vt 0.625000 0.000000
vt 0.375000 0.250000
vt 0.375000 0.000000
vt 0.625000 0.500000
vt 0.375000 0.750000
vt 0.375000 0.500000
vt 0.875000 0.750000
vt 0.625000 0.750000
vt 0.125000 0.750000
vt 0.125000 0.500000
vt 0.875000 0.500000
vt 0.625000 0.250000
s 0
usemtl Wood_dark
f 145/192/86 146/193/86 144/194/86
f 151/195/87 148/196/87 150/197/87
f 145/198/88 154/199/88 149/199/88
f 150/197/89 144/200/89 146/201/89
f 147/202/90 149/199/90 151/195/90
f 153/198/89 158/199/89 154/199/89
f 149/199/88 155/196/88 148/196/88
f 144/194/88 153/192/88 145/192/88
f 148/196/88 152/200/88 144/200/88
f 154/199/86 159/196/86 155/196/86
f 155/196/90 156/200/90 152/200/90
f 152/194/87 157/192/87 153/192/87
f 145/192/86 147/203/86 146/193/86
f 151/195/87 149/199/87 148/196/87
f 145/198/88 153/198/88 154/199/88
f 150/197/89 148/196/89 144/200/89
f 147/202/90 145/198/90 149/199/90
f 153/198/89 157/198/89 158/199/89
f 149/199/88 154/199/88 155/196/88
f 144/194/88 152/194/88 153/192/88
f 148/196/88 155/196/88 152/200/88
f 154/199/86 158/199/86 159/196/86
f 155/196/90 159/196/90 156/200/90
f 152/194/87 156/194/87 157/192/87
