# Blender 3.6.1
# www.blender.org
mtllib libraryBG.mtl
o Desk
v 1.054657 0.903253 -1.107802
v 1.054657 0.016428 -1.107802
v 1.054657 0.903253 -0.302414
v 1.054657 0.016428 -0.302414
v -1.046259 0.903253 -1.107802
v -1.046259 0.016428 -1.107802
v -1.046259 0.903253 -0.302414
v -1.046259 0.016428 -0.302414
vn -0.0000 1.0000 -0.0000
vn -0.0000 -0.0000 1.0000
vn -1.0000 -0.0000 -0.0000
vn -0.0000 -1.0000 -0.0000
vn 1.0000 -0.0000 -0.0000
vn -0.0000 -0.0000 -1.0000
vt 0.875000 0.500000
vt 0.625000 0.750000
vt 0.625000 0.500000
vt 0.375000 1.000000
vt 0.375000 0.750000
vt 0.625000 0.000000
vt 0.375000 0.250000
vt 0.375000 0.000000
vt 0.375000 0.500000
vt 0.125000 0.750000
vt 0.125000 0.500000
vt 0.625000 0.250000
vt 0.875000 0.750000
vt 0.625000 1.000000
s 0
usemtl Desk
f 5/1/1 3/2/1 1/3/1
f 3/2/2 8/4/2 4/5/2
f 7/6/3 6/7/3 8/8/3
f 2/9/4 8/10/4 6/11/4
f 1/3/5 4/5/5 2/9/5
f 5/12/6 2/9/6 6/7/6
f 5/1/1 7/13/1 3/2/1
f 3/2/2 7/14/2 8/4/2
f 7/6/3 5/12/3 6/7/3
f 2/9/4 4/5/4 8/10/4
f 1/3/5 3/2/5 4/5/5
f 5/12/6 1/3/6 2/9/6
o ShelfLeft
v -1.219587 0.019392 -1.972203
v -1.219587 1.937078 -1.972203
v -1.219587 0.019392 -2.405560
v -1.219587 1.937078 -2.405560
v -0.028731 0.019392 -1.972203
v -0.028731 1.937078 -1.972203
v -0.028731 0.019392 -2.405560
v -0.028731 1.937078 -2.405560
v -1.219587 0.655500 -1.972203
v -1.219587 1.300970 -1.972203
v -0.028731 1.300970 -1.972203
v -0.028731 0.655500 -1.972203
v -1.168876 0.700984 -1.972203
v -1.168876 1.255486 -1.972203
v -0.079442 1.255486 -1.972203
v -0.079442 0.700984 -1.972203
v -1.168876 0.072361 -1.972203
v -0.079442 0.072361 -1.972203
v -1.168876 0.655500 -1.972203
v -0.079442 0.655500 -1.972203
v -0.079442 1.879745 -1.972203
v -1.168876 1.879745 -1.972203
v -0.079442 1.300970 -1.972203
v -1.168876 1.300970 -1.972203
v -1.168876 0.700984 -2.369030
v -1.168876 1.255486 -2.369030
v -0.079442 1.255486 -2.369030
v -0.079442 0.700984 -2.369030
v -1.168876 0.072361 -2.369030
v -0.079442 0.072361 -2.369030
v -1.168876 0.655500 -2.369030
v -0.079442 0.655500 -2.369030
v -0.079442 1.879745 -2.369030
v -1.168876 1.879745 -2.369030
v -0.079442 1.300970 -2.369030
v -1.168876 1.300970 -2.369030
vn -1.0000 -0.0000 -0.0000
vn -0.0000 -0.0000 -1.0000
vn 1.0000 -0.0000 -0.0000
vn -0.0000 -0.0000 1.0000
vn -0.0000 -1.0000 -0.0000
vn -0.0000 1.0000 -0.0000
vt 0.625000 0.000000
vt 0.375000 0.250000
vt 0.375000 0.000000
vt 0.625000 0.250000
vt 0.375000 0.500000
vt 0.625000 0.500000
vt 0.375000 0.750000
vt 0.625000 0.750000
vt 0.125000 0.750000
vt 0.125000 0.500000
vt 0.875000 0.500000
vt 0.875000 0.750000
vt 0.375000 1.000000
vt 0.625000 1.000000
s 0
usemtl Shelf
f 10/15/7 11/16/7 9/17/7
f 12/18/8 15/19/8 11/16/8
f 16/20/9 13/21/9 15/19/9
f 19/22/10 29/22/10 31/22/10
f 15/19/11 9/23/11 11/24/11
f 12/25/12 14/22/12 16/20/12
f 18/26/10 23/22/10 19/22/10
f 13/21/12 19/22/12 20/21/12
f 10/15/12 17/17/12 18/15/12
f 20/21/10 26/21/10 13/21/10
f 23/22/7 36/21/7 24/21/7
f 19/22/10 24/21/10 20/21/10
f 20/21/10 21/23/10 17/23/10
f 17/17/10 22/15/10 18/15/10
f 32/15/9 42/15/9 30/15/9
f 20/21/12 27/23/12 28/21/12
f 13/21/10 25/23/10 9/23/10
f 17/17/10 25/17/10 27/17/10
f 25/17/9 39/17/9 27/17/9
f 18/26/12 31/22/12 32/26/12
f 10/26/10 29/22/10 14/22/10
f 18/15/10 30/15/10 10/15/10
f 35/22/10 33/27/10 36/21/10
f 38/21/10 39/23/10 37/23/10
f 42/26/10 43/22/10 41/22/10
f 26/21/12 37/23/12 25/23/12
f 29/22/7 43/22/7 31/22/7
f 24/21/12 33/23/12 21/23/12
f 27/23/11 40/21/11 28/21/11
f 30/26/11 41/22/11 29/22/11
f 22/26/11 35/22/11 23/22/11
f 28/21/7 38/21/7 26/21/7
f 31/22/12 44/26/12 32/26/12
f 21/17/9 34/15/9 22/15/9
f 10/15/7 12/18/7 11/16/7
f 12/18/8 16/20/8 15/19/8
f 16/20/9 14/22/9 13/21/9
f 19/22/10 14/22/10 29/22/10
f 15/19/11 13/21/11 9/23/11
f 12/25/12 10/26/12 14/22/12
f 18/26/10 22/26/10 23/22/10
f 13/21/12 14/22/12 19/22/12
f 10/15/12 9/17/12 17/17/12
f 20/21/10 28/21/10 26/21/10
f 23/22/7 35/22/7 36/21/7
f 19/22/10 23/22/10 24/21/10
f 20/21/10 24/21/10 21/23/10
f 17/17/10 21/17/10 22/15/10
f 32/15/9 44/15/9 42/15/9
f 20/21/12 17/23/12 27/23/12
f 13/21/10 26/21/10 25/23/10
f 17/17/10 9/17/10 25/17/10
f 25/17/9 37/17/9 39/17/9
f 18/26/12 19/22/12 31/22/12
f 10/26/10 30/26/10 29/22/10
f 18/15/10 32/15/10 30/15/10
f 35/22/10 34/28/10 33/27/10
f 38/21/10 40/21/10 39/23/10
f 42/26/10 44/26/10 43/22/10
f 26/21/12 38/21/12 37/23/12
f 29/22/7 41/22/7 43/22/7
f 24/21/12 36/21/12 33/23/12
f 27/23/11 39/23/11 40/21/11
f 30/26/11 42/26/11 41/22/11
f 22/26/11 34/26/11 35/22/11
f 28/21/7 40/21/7 38/21/7
f 31/22/12 43/22/12 44/26/12
f 21/17/9 33/17/9 34/15/9
o ShelfRight
v 0.085267 0.027841 -2.045423
v 0.085267 1.791612 -2.045423
v 0.085267 0.027841 -2.421715
v 0.085267 1.791612 -2.421715
v 1.266228 0.027841 -2.045423
v 1.266228 1.791612 -2.045423
v 1.266228 0.027841 -2.421715
v 1.266228 1.791612 -2.421715
v 0.085267 0.612895 -2.045423
v 0.085267 1.206558 -2.045423
v 1.266228 1.206558 -2.045423
v 1.266228 0.612895 -2.045423
v 0.135557 0.654728 -2.045423
v 0.135557 1.164725 -2.045423
v 1.215938 1.164725 -2.045423
v 1.215938 0.654728 -2.045423
v 0.135557 0.076559 -2.045423
v 1.215938 0.076559 -2.045423
v 0.135557 0.612895 -2.045423
v 1.215938 0.612895 -2.045423
v 1.215938 1.738881 -2.045423
v 0.135557 1.738881 -2.045423
v 1.215938 1.206558 -2.045423
v 0.135557 1.206558 -2.045423
v 0.135557 0.654728 -2.389995
v 0.135557 1.164725 -2.389995
v 1.215938 1.164725 -2.389995
v 1.215938 0.654728 -2.389995
v 0.135557 0.076559 -2.389995
v 1.215938 0.076559 -2.389995
v 0.135557 0.612895 -2.389995
v 1.215938 0.612895 -2.389995
v 1.215938 1.738881 -2.389995
v 0.135557 1.738881 -2.389995
v 1.215938 1.206558 -2.389995
v 0.135557 1.206558 -2.389995
vn -1.0000 -0.0000 -0.0000
vn -0.0000 -0.0000 -1.0000
vn 1.0000 -0.0000 -0.0000
vn -0.0000 -0.0000 1.0000
vn -0.0000 -1.0000 -0.0000
vn -0.0000 1.0000 -0.0000
vt 0.625000 0.000000
vt 0.375000 0.250000
vt 0.375000 0.000000
vt 0.625000 0.250000
vt 0.375000 0.500000
vt 0.625000 0.500000
vt 0.375000 0.750000
vt 0.625000 0.750000
vt 0.125000 0.750000
vt 0.125000 0.500000
vt 0.875000 0.500000
vt 0.875000 0.750000
vt 0.375000 1.000000
vt 0.625000 1.000000
s 0
usemtl Shelf
f 46/29/13 47/30/13 45/31/13
f 48/32/14 51/33/14 47/30/14
f 52/34/15 49/35/15 51/33/15
f 55/36/16 65/36/16 67/36/16
f 51/33/17 45/37/17 47/38/17
f 48/39/18 50/36/18 52/34/18
f 54/40/16 59/36/16 55/36/16
f 49/35/18 55/36/18 56/35/18
f 46/29/18 53/31/18 54/29/18
f 56/35/16 62/35/16 49/35/16
f 59/36/13 72/35/13 60/35/13
f 55/36/16 60/35/16 56/35/16
f 56/35/16 57/37/16 53/37/16
f 53/31/16 58/29/16 54/29/16
f 68/29/15 78/29/15 66/29/15
f 56/35/18 63/37/18 64/35/18
f 49/35/16 61/37/16 45/37/16
f 53/31/16 61/31/16 63/31/16
f 61/31/15 75/31/15 63/31/15
f 54/40/18 67/36/18 68/40/18
f 46/40/16 65/36/16 50/36/16
f 54/29/16 66/29/16 46/29/16
f 71/36/16 69/41/16 72/35/16
f 74/35/16 75/37/16 73/37/16
f 78/40/16 79/36/16 77/36/16
f 62/35/18 73/37/18 61/37/18
f 65/36/13 79/36/13 67/36/13
f 60/35/18 69/37/18 57/37/18
f 63/37/17 76/35/17 64/35/17
f 66/40/17 77/36/17 65/36/17
f 58/40/17 71/36/17 59/36/17
f 64/35/13 74/35/13 62/35/13
f 67/36/18 80/40/18 68/40/18
f 57/31/15 70/29/15 58/29/15
f 46/29/13 48/32/13 47/30/13
f 48/32/14 52/34/14 51/33/14
f 52/34/15 50/36/15 49/35/15
f 55/36/16 50/36/16 65/36/16
f 51/33/17 49/35/17 45/37/17
f 48/39/18 46/40/18 50/36/18
f 54/40/16 58/40/16 59/36/16
f 49/35/18 50/36/18 55/36/18
f 46/29/18 45/31/18 53/31/18
f 56/35/16 64/35/16 62/35/16
f 59/36/13 71/36/13 72/35/13
f 55/36/16 59/36/16 60/35/16
f 56/35/16 60/35/16 57/37/16
f 53/31/16 57/31/16 58/29/16
f 68/29/15 80/29/15 78/29/15
f 56/35/18 53/37/18 63/37/18
f 49/35/16 62/35/16 61/37/16
f 53/31/16 45/31/16 61/31/16
f 61/31/15 73/31/15 75/31/15
f 54/40/18 55/36/18 67/36/18
f 46/40/16 66/40/16 65/36/16
f 54/29/16 68/29/16 66/29/16
f 71/36/16 70/42/16 69/41/16
f 74/35/16 76/35/16 75/37/16
f 78/40/16 80/40/16 79/36/16
f 62/35/18 74/35/18 73/37/18
f 65/36/13 77/36/13 79/36/13
f 60/35/18 72/35/18 69/37/18
f 63/37/17 75/37/17 76/35/17
f 66/40/17 78/40/17 77/36/17
f 58/40/17 70/40/17 71/36/17
f 64/35/13 76/35/13 74/35/13
f 67/36/18 79/36/18 80/40/18
f 57/31/15 69/31/15 70/29/15
